<svg xmlns="http://www.w3.org/2000/svg" viewBox="0 0 273 273"><defs><style>.a{fill:#fefefe;}.b{fill:#3f3f3f;}.c{fill:#3b3b3b;}.d{fill:#3a3a3a;}.e{fill:#474747;}.f{fill:#fdfdfd;}.g{fill:#fcfcfc;}.h{fill:#040404;}.i{fill:#f2f2f2;}.j{fill:#e3e3e3;}.k{fill:#c4c4c4;}.l{fill:#c7c7c7;}.m{fill:#ebebeb;}.n{fill:#d9d9d9;}</style></defs><path d="M131,.08h11c2.21,1,4.55.27,6.82.52,23.33-.16,44,8.15,63,20.73,29.87,19.83,49.59,47.2,58.35,82.18a74.61,74.61,0,0,1,2.24,19.74c.29,2.58-.61,5.23.52,7.75v11c-1.13,2.5-.23,5.14-.52,7.7-.16,23.29-8.51,44-21.23,62.86-20.24,30.06-48.08,49.62-83.52,58.08a78.54,78.54,0,0,1-18.78,1.76c-2.28.26-4.65-.58-6.87.52H131c-2.21-1.05-4.55-.27-6.82-.52-23.36.16-44.08-8.17-63.07-20.78-30.07-20-49.82-47.56-58.44-82.83A73.88,73.88,0,0,1,.6,150c-.26-2,.57-4.08-.52-6V129c1.09-1.91.26-4,.52-6C.57,103.83,7,86.43,16,69.92A135,135,0,0,1,70.89,15.46c16.52-9,34-15.29,53.24-14.86C126.42.34,128.78,1.18,131,.08Z"/><path class="a" d="M272,122.85c-3.11-33.15-17-61.25-40.72-84.28-22.82-22.13-50.18-35-82.07-37.65-.44-.07-.62-.22-.55-.44s.18-.4.3-.4c40.14,0,80.29.05,120.43-.08,3,0,3.59.6,3.58,3.58-.13,39.81-.08,79.62-.08,119.43C272.53,123.47,272.23,123.41,272,122.85Z"/><path class="a" d="M149.24,272.08c38.07-3.48,69-20.47,93.18-49.78A129,129,0,0,0,272,150.15c.2-.56.49-.64.89-.16,0,39.81-.05,79.62.08,119.43,0,3-.6,3.59-3.58,3.58-40.14-.13-80.29-.08-120.43-.08-.33-.3-.4-.53-.22-.67A.73.73,0,0,1,149.24,272.08Z"/><path class="a" d="M123.76.92C85.7,4.4,54.72,21.39,30.58,50.7A129.25,129.25,0,0,0,1,122.84c-.2.56-.48.64-.88.17C.08,83.2.13,43.39,0,3.58,0,.6.6,0,3.58,0,43.72.13,83.87.08,124,.08c.33.3.4.53.22.67A.73.73,0,0,1,123.76.92Z"/><path class="a" d="M1,150.16c3.76,37.43,20.48,68,49.3,91.9,21.26,17.6,45.8,27.84,73.5,30,.44.06.62.21.55.43s-.18.4-.3.4c-40.06,0-80.12-.05-120.18.08C.71,273,0,272.3,0,269.18.13,229.45.08,189.72.08,150,.48,149.53.77,149.59,1,150.16Z"/><path class="b" d="M272,122.85a1.36,1.36,0,0,0,.89.16v8C271.21,128.44,271.77,125.63,272,122.85Z"/><path class="b" d="M272.92,150h-.46l-.43.16c-.26-2.78-.82-5.59.89-8.15Z"/><path class="c" d="M123.76.92A8.11,8.11,0,0,1,124,.08h7C128.75,1.75,126.25,1.29,123.76.92Z"/><path class="c" d="M149,.08c.1.28.18.56.25.84-2.49.36-5,.83-7.24-.84Z"/><path class="d" d="M124,272.92a4.94,4.94,0,0,1-.25-.83c2.49-.38,5-.83,7.24.83Z"/><path class="d" d="M149.24,272.08a4.78,4.78,0,0,1-.25.84h-7C144.25,271.25,146.75,271.71,149.24,272.08Z"/><path class="e" d="M.08,123l.88-.17c.28,2.14.88,4.32-.88,6.16Z"/><path class="e" d="M1,150.16.08,150v-6C1.84,145.84,1.24,148,1,150.16Z"/><path class="f" d="M177.94,119.38c-3.64-.35-4.81,1.26-5.66,4.22-3.3,11.52-8.71,21.92-17.61,30.19-4.39,4.09-9.59,8-15.58,4.66s-4.41-9.79-3.37-15.35c.92-5,2.23-9.84,2.62-15.16-4.89,4.93-9.71,9.94-14.68,14.8-6.31,6.17-12.81,12.18-20.67,16.36-4.59,2.45-10,5.2-14.44,1.34s-1.32-9.31.44-13.88c2.88-7.49,7.58-14,11.6-20.88,4.61-7.89,9.22-15.78,10.87-25,1.58-8.84-2.67-13.15-11.5-11.46a32.1,32.1,0,0,0-9.32,3.43,97.07,97.07,0,0,0-30,25.12,36.81,36.81,0,0,0-3.79,5.85c-1.58,3.06-3.95,6.55-1.42,9.73s5.83.65,8.79-.15a3.15,3.15,0,0,1,2.85.15c-2.34,3.55-8.24,5.57-12,4-4.37-1.88-4-5.59-3.37-9.34a21,21,0,0,1,3.18-8.33A78.1,78.1,0,0,1,99,86.73a16.49,16.49,0,0,1,3.42-.63c12.44-1,17.9,5.39,14.57,17.38-2.34,8.4-7.07,15.71-11.36,23.19-3.8,6.63-8,13.06-11.57,19.78-1.9,3.54-5,8.15-1.37,11.43s7.5-.6,10.71-2.66c15.58-10,28-23.48,39.75-37.58a49.24,49.24,0,0,1,4.43-4.7c.84-.76,2.1-1.37,3.16-.49s.3,2.17-.24,3.14c-3.53,6.4-6.85,12.9-9,19.93-1.51,5-2.76,10-2,15.2.86,6.23,4.06,7.58,9.26,3.89a47.52,47.52,0,0,0,11-11.51A69.1,69.1,0,0,0,169,124.4c1.22-3.71,1.7-7.42.19-11.23a10.31,10.31,0,0,1-.52-3.93c0-1.3.17-2.83,1.83-3.16s2.34,1,2.8,2.26a8.62,8.62,0,0,1,.84,3.34C173.79,114.92,174.87,117.36,177.94,119.38Z"/><path d="M169,199.23,166,201a16,16,0,0,1-4.54,2.69c-3.17,1.7-6.61,1.28-10,1.28a6.83,6.83,0,0,1-1.56-.22c-7-2.85-9.35-9.41-6-17.26,3.57-8.32,10.39-13.63,17.86-18.1a86.16,86.16,0,0,1,20.38-9.07c5.15-1.48,6.58-.16,5.27,5-2.5,9.85-5.67,19.44-12.33,27.43C173.19,195,170.65,196.72,169,199.23Z"/><path class="g" d="M173.89,192.8a77.26,77.26,0,0,0,13.23-32.86c-16.18,5.28-31.16,11-40.73,25.36-3.91,5.89-4.54,15.31,3.58,18.77.12.91,0,1.51-1.14,1-5.47-.59-9.55-6.76-8.59-13.17.93-6.22,4.32-11.11,8.91-15.15a80.68,80.68,0,0,1,33.06-17.65c5.69-1.51,8.06-6.31,5.85-12.29-1.59-1.59-.48-3.05.26-4.48a52.74,52.74,0,0,0,3.87-8c-3.05.37-5,2.09-6.64,3.92a36.32,36.32,0,0,0-6.21,8.92c-2.18,4.53-1.91,5.19,2.52,7.13-1.25,3.51-4.25,4.37-7.16,3.43-3.41-1.09-2.46-4.39-1.74-6.86a35.79,35.79,0,0,1,13.8-19.55c2.85-2,6.25-3.27,9.85-1.52,2,.95,3.38.89,1.69,4.59-3.17,6.94-4.16,14.89-5.91,22.46-.36,1.58,1.27,1.07,2.08,1.17,1.84.2,3.62.37,4.26,3.19-6.11-2.75-7.64.51-9,5.6-2.72,10.15-7,19.65-14.6,27.3C174.05,194.29,173.63,193.88,173.89,192.8Z"/><path class="h" d="M181.86,154.24c-5.38.88-6.83-.68-4.43-5.83,3.32-7.14,7.19-14.07,16.39-16.17-.64,5.82-5.12,9.43-5.76,14.54L186.94,148a39.92,39.92,0,0,1-2.94,3.91Z"/><path class="i" d="M217.16,154c1.89.14,2.81,1.31,2.7,3.23s-1.28,2.89-3.25,2.8-2.89-1.28-2.81-3.22S215.11,153.94,217.16,154Z"/><path class="j" d="M173.89,192.8l1.24,1.25c-1.6,2.26-3.16,4.58-6.15,5.18C169.12,195.94,172.25,194.94,173.89,192.8Z"/><path class="k" d="M151,204.16a30.78,30.78,0,0,0,11-1.26.64.64,0,0,1,.26.69c-.09.23-.17.34-.25.34-1.7,1.65-3.85,1.85-6,1.88C154.5,204.62,152,206.76,151,204.16Z"/><path class="l" d="M162,203.93v-1a4.56,4.56,0,0,1,4-1.94C165.94,203.7,163.77,203.57,162,203.93Z"/><path class="m" d="M151,204.16c1.26,1.74,3.64.12,5,1.65-2.41.11-4.88.78-7.1-.77l1.14-1Z"/><path class="n" d="M184,151.91c-.17-2.17.95-3.37,2.94-3.91C187.13,150.19,186.27,151.58,184,151.91Z"/></svg>