<svg xmlns="http://www.w3.org/2000/svg" viewBox="0 0 95 121"><defs><style>.a{fill:#439f6d;}.b{fill:#419c6a;}.c{fill:#557464;}.d{fill:#409a69;}.e{fill:#5ec08a;}.f{fill:#fefefe;}.g{fill:#2e734d;}.h{fill:#3e9666;}.i{fill:#d1d9d5;}.j{fill:#f2f5f3;}.k{fill:#f2f4f3;}.l{fill:#e7f2ec;}.m{fill:#fdfdfd;}.n{fill:#409a68;}.o{fill:#3d9364;}.p{fill:#3c9062;}.q{fill:#3a8e60;}.r{fill:#398b5e;}.s{fill:#479c6d;}.t{fill:#e8f2ed;}.u{fill:#38895d;}.v{fill:#3c9162;}.w{fill:#3e9565;}.x{fill:#3f9365;}.y{fill:#3b8e60;}.z{fill:#459469;}.aa{fill:#3f8c62;}.ab{fill:#589f78;}.ac{fill:#4c9a6f;}.ad{fill:#44986a;}.ae{fill:#3c8e61;}.af{fill:#f2f7f4;}.ag{fill:#398a5e;}.ah{fill:#d5e6dd;}.ai{fill:#f5f9f7;}</style></defs><path class="a" d="M94.92,3.08V112c-.91,2.85-2.24,5.17-5.76,5.23-12.15.22-24.3.46-36.44-.14a4.53,4.53,0,0,1-1.9-.55c-3.49-3.08-.57-5.06,1.23-7.23,3.52-4.47,8.21-7.77,12.11-11.86a16.29,16.29,0,0,1,1-1.9,12.56,12.56,0,0,1,1.08-1c1-.8,1.81-1.76,2.84-2.51,3-2.06,4.07-4.91,4-8.5-.27-9.93-.19-19.87,0-29.8.06-3.76-.9-6.09-5-6.42-3.3-.27-5-2-5.17-5.48a3.51,3.51,0,0,0-3.45-3.64C48.33,38.4,37.22,37,26.22,39c-4.8.83-6.06,6.07-10,8-1.73,1.66-3.11,3.68-5.12,5.07A49.36,49.36,0,0,1,7,56.31c-1.55,2-3.23,3.76-5.83,4.31A2,2,0,0,1,0,60v-17c2.87-7.42,9.28-11.87,14.66-17.13a10.42,10.42,0,0,0,3.26-5.27c1.06-3.88.47-7.84.67-11.76.17-3.1.2-6.25,2.39-8.81H91.92A7.12,7.12,0,0,1,94.92,3.08Z"/><path class="a" d="M0,113V87c2-1.89,3.9-1.13,5.88.07,11.64,7.06,23,14.61,34.38,22,2.62,1.7,5.41,4,1.76,7.51-12.33,1.58-24.7.66-37.05.54C2.15,117.15,1.05,115.11,0,113Z"/><path class="b" d="M43,115c-1.34-3-4.21-4.5-6.76-5.87-4.43-2.37-8.28-5.58-12.63-8-6.13-3.41-11.5-8-17.8-11.16C3.84,89,2.43,87,0,87V76c2.25-1.59,3.94-.32,5.83.92,9.24,6,18.3,12.39,27.82,18,.46.1.92.19,1.4.26a5.93,5.93,0,0,1,2.93,2c3.14,3.72,8.21,4.5,11.73,7.68,1.68,1.51,4,2.38,4.24,5.08-.76,2.12-3.23,2.87-4,5Q46.47,119.07,43,115Z"/><path class="c" d="M43,115h7q19.15,0,38.32,0c3.4,0,4.39-.46,6.64-3v5c-.8,3.43-3.43,3.6-6.22,3.5H6.25c-2.79.1-5.44,0-6.25-3.5v-4a9.09,9.09,0,0,0,6.14,2.07C18.41,114.92,30.69,115,43,115Z"/><path class="d" d="M34,97c-1.42.47-2.59-.61-3.47-1.15-5.18-3.17-10.12-6.73-15.23-10-3-1.93-6.08-3.74-9-5.73C4.17,78.74,2.55,76.65,0,76V65a1.54,1.54,0,0,1,1.84,0C9,71.82,18.27,75.64,25.63,82.15c.51,2.32,1.55,4,4.3,3.87,2.44-.12,5,.18,5.69,2.91S37.1,94.86,34,97Z"/><path class="e" d="M21,.08C21,6.39,21,12.69,21,19a5.82,5.82,0,0,1-1,4.07c-6.66,2.95-13.32,4.14-20,0v-1C2.66,14.38,9.25,9.64,14,3.5c1.5-1.94,4.14-2,6-3.42Z"/><path class="f" d="M20,.08c0,.17.07.41,0,.48C15.34,4.66,12,9.9,7.53,14.19c-2.6,2.5-4.27,6-7.53,7.88V.08Z"/><path class="g" d="M0,23.07H20c-3.44,4.59-7.88,8.22-11.86,12.3C5.52,38,3.16,41,0,43.05Z"/><path class="h" d="M24,82c-.94-.18-1.95.36-2.84-.34-4.66-3.64-9.78-6.61-14.74-9.81C2.3,69.23,2.4,69.08,0,65V60H1a4.63,4.63,0,0,1,4.3.16c7.19,4.29,14.58,8.3,20.47,14.45C25.79,77.26,27,80.16,24,82Z"/><ellipse class="i" cx="47.46" cy="120.5" rx="60.41" ry="0.7"/><path class="j" d="M5,120v1H0v-4C1.42,118.41,2.6,120.21,5,120Z"/><path class="k" d="M89.92,121v-1c2.39.21,3.58-1.59,5-3v4Z"/><path class="l" d="M94.92,3.08a5.39,5.39,0,0,1-3-3,8.34,8.34,0,0,0,1.5,0c1.3-.26,1.77.21,1.51,1.51A8.34,8.34,0,0,0,94.92,3.08Z"/><path class="m" d="M24,82V74a8.35,8.35,0,0,1-2.25-6.83c1-2.42-.54-4.84,0-7.25.52-2.73-.15-5.51.3-8.24-.4-5-1.13-10.09,1.95-14.65,0-1.37,1.06-1,1.78-1,12.93,0,25.86,0,39.13,0V45h10v4.48c0,11.95-.08,23.9.06,35.85,0,2.36-.5,4.13-2.39,5.52-1.29,1-2,2.56-3.67,3.16a1.12,1.12,0,0,1-1.39,0c0,.05-.33.21-.3.27A2.24,2.24,0,0,1,66.94,96v1a7.54,7.54,0,0,1-3.66,1.35C53.5,98.14,43.63,99.8,34,97V88.24c-3.17-.52-6.45,0-10-.36Z"/><path class="n" d="M54,110c-2.17.71-3.12-1.48-4.49-2.26-3.76-2.14-6.93-5.26-11.07-6.89A2.34,2.34,0,0,1,37,98a173,173,0,0,1,29,0A82.86,82.86,0,0,1,54,110Z"/><path class="o" d="M24,67v7c-2.42,0-3.9-1.78-5.72-3C12.54,67.33,6.76,63.71,1,60a14.39,14.39,0,0,1,5-5A30.77,30.77,0,0,1,24,67Z"/><path class="p" d="M24,67c-.5,0-1.18.21-1.46,0-4.12-3.62-9.23-5.73-13.63-8.93A7.61,7.61,0,0,1,6,55a10.17,10.17,0,0,1,4-4c6.42.26,10.38,4.36,14,9Z"/><path class="q" d="M24,60c-2.58.14-4.25-1.76-6-3.08-2.64-2-6.09-2.93-8-5.91a14.42,14.42,0,0,1,5-5c4.31,0,6.51,3.22,9,6Z"/><path class="r" d="M24,52.05c-1.26-.06-2.42.14-3.59-1C19,49.75,17,49,15.33,47.88c-.69-.45-.21-1.22-.34-1.83a47.25,47.25,0,0,1,9-9Z"/><path class="s" d="M65.94,98H37c-1-.38-2.53.92-3-1h33C67,97.71,66.63,98,65.94,98Z"/><path class="t" d="M67.94,93a.85.85,0,0,0,1,1,2.46,2.46,0,0,1-2,2l-1-2C66.49,93.45,66.8,92.41,67.94,93Z"/><path class="u" d="M63,82c2-2.65,2-2.65,2-6.09,0-8.52,0-17,0-25.89h5c1.15,11.36.38,22.75.39,34.13,0,4.23-3.8,1.59-5.77,2.3C62.24,85.64,61.81,84.12,63,82Z"/><path class="v" d="M54,80v4H44c-2.56-1.89-5.72-2.45-8.5-3.94-5.95-3.19-8.34-7.64-6.7-14.21,2.36-2.27,4.44-.71,6.55.46,1.09,2.94,3.69,3.24,6.27,3.56,1.47,1.29,2.72,2.69,4.71,3.45A14.43,14.43,0,0,1,54,80Z"/><path class="w" d="M29,66v7.42c2.19.36,4,1.72,5.67,2.88a100.15,100.15,0,0,0,9,5.87c.73.38.22,1.21.35,1.82H28.44c-.92-1.15-.43-2.52-.44-3.77q-.06-18.45,0-36.92c0-.8-.71-2.11,1-2.29l.78.48c2.55,3.87,1.37,8.22,1.57,12.39-.74,1.77.09,3.6-.2,5.39C30.76,61.67,31.45,64.36,29,66Z"/><path class="x" d="M63,82c0,.79-.18,1.61.66,2.18.67.46.21,1.21.33,1.81.67.34.67.67,0,1v5.54a2.67,2.67,0,0,1-.34.3.89.89,0,0,1-.43.15H39.29c-.67-1.38-.15-2.72-.32-4,4.19-1.08,8.46-.2,12.68-.51,1.77-.13,3.61.47,5.3-.49A20.51,20.51,0,0,1,63,82Z"/><path class="y" d="M54,80c-1.69.17-2.89-.92-4.17-1.71-2.73-1.7-5.34-3.6-8.1-5.24-1-.6-.58-1.34-.72-2C44.67,68,49,70.19,53,69.58c3.47,1.7,4.67.49,4.58-3.22-.15-6.16-.09-12.32,0-18.49,0-2.3-.21-4.72,1.73-6.54l.64-.28c1.66.18,1,1.48,1,2.27,0,11.4,0,22.8,0,34.59-1.89,0-3.81.15-5.73.1C53.52,78,54,79.14,54,80Z"/><path class="z" d="M63.94,87V86h5.82c.39-6,.12-12.07.17-18.11s0-11.91,0-17.86c1-.08,1,.61,1,1.29V87Z"/><path class="aa" d="M29,41.05a.76.76,0,0,1,.79-1q14.7,0,29.4,0a.76.76,0,0,1,.79,1,6.07,6.07,0,0,1-4.79,2.25q-10.69.42-21.4,0A6.07,6.07,0,0,1,29,41.05Z"/><path class="ab" d="M56.12,84.1V79.28h4.82Z"/><path class="ac" d="M67.94,93l-2,1v-5.8h5C71.16,90.77,68.26,91.08,67.94,93Z"/><path class="ad" d="M57,88c0,1.35-1,1-1.75,1C49.79,89,44.38,89,39,89c0-1.34,1-1,1.75-1C46.13,88,51.54,88,57,88Z"/><path class="ae" d="M29,66V59c2-1.48,4.36-1.13,6.64-1.11a3.57,3.57,0,0,1,1.19.8c.42,2.16,3.05,2.37,3.78,4.26,1.19,2.6,3.55,1.95,5.63,2,1.83.07,3.71-.3,5.46.19s3.61,1.41,1.65,3.77C47.17,69.38,41,70.94,35,68c-1.55.33-2.65-.78-3.79-1.42A4.19,4.19,0,0,0,29,66Z"/><path class="af" d="M35,68H54c1.77,1,1.77,2,0,3H41c-1.74,0-3.5.1-5.23,0C34.49,70.91,34.19,69.57,35,68Z"/><path class="ag" d="M54,71c.86-1.5.86-1.5,0-3,.08-1-.59-1-1.27-1-3.14,0-6.27,0-9.41,0S40,67,39,63c1.52-3.39,4.6-1.39,6.53-2-2.85-1-6.87,1.86-9.53-2-2.87-.91-5.61-2-7-5v-13H60v36.1c-2.36-1.48-3.56-3.92-6-4.69C53.83,72.41,54,71.53,54,71Z"/><path class="ag" d="M29,54.05c3.25.38,5.39,2.32,7,5-.33,0-.72-.12-1,0-2.79,1.65-3,1.66-6,0Z"/><path class="ah" d="M36,59c4.63,0,9.26,0,13.89,0,3,0,5.73,1.36,5,2.18a6,6,0,0,1-5,1.84C46.25,63,42.6,63,39,63A7.35,7.35,0,0,1,38,63C35,62.67,34.51,61.78,36,59Z"/><path class="ai" d="M35,54.05c-1.49-2.35-1.38-3,.58-3,5.48,0,11,0,16.45,0a8.09,8.09,0,0,1,1.48,0c.84.17,1.07,1.7.47,3A73.53,73.53,0,0,1,35,54.05Z"/><path class="ag" d="M35,54.05H54a.76.76,0,0,1-.78,1q-8.72,0-17.41,0A.77.77,0,0,1,35,54.05Z"/></svg>