<svg xmlns="http://www.w3.org/2000/svg" viewBox="0 0 102 127"><defs><style>.a{fill:#e15842;}.b{fill:#c45947;}.c{fill:#ef6c57;}.d{fill:#fefefe;}.e{fill:#cf7a6c;}.f{fill:#e79e92;}.g{fill:#d98072;}.h{fill:#f9f0ee;}.i{fill:#f8ecea;}.j{fill:#fcf3f1;}.k{fill:#e3998d;}.l{fill:#eac3bc;}.m{fill:#df5641;}.n{fill:#db553f;}.o{fill:#d9533e;}.p{fill:#c24733;}.q{fill:#d6513c;}.r{fill:#d5513c;}.s{fill:#d24f3b;}.t{fill:#d3503b;}.u{fill:#d14f3a;}.v{fill:#cf4e39;}.w{fill:#cd4c38;}.x{fill:#c34733;}.y{fill:#c44935;}.z{fill:#cf503b;}.aa{fill:#c94d39;}.ab{fill:#c94f3b;}.ac{fill:#cd513d;}.ad{fill:#fefdfd;}.ae{fill:#cb523f;}</style></defs><path class="a" d="M101.8,3.12V117.78c-.86,2.3-1.48,4.81-4.6,5.07-14.26-1.22-28.55-.28-42.83-.62-4.76-.11-5.2-.74-4.14-5.15,1.62-3,4.87-4.44,6.66-7.25.87-2,3.45-2.28,4.35-4.27.87-2.17,3-3.22,4.38-5,1.08-2.4,4.1-2.8,5.27-5.12,2.12-3.4,6.4-5,7.74-9a9.69,9.69,0,0,0,2.77-7.25c.06-9.47.14-18.94,0-28.41-.1-5.42-1.82-7-7.25-7.34-2.32-.13-4.65-.05-7-.24-3-.24-5.12-1.41-5.28-4.76C61.8,36.56,61,35.2,59,35.12c-4.78-.19-9.57-.18-14.36,0A3.45,3.45,0,0,0,41.86,37a22.78,22.78,0,0,0-6.41,5.52,12.45,12.45,0,0,1-5.72.8,9.49,9.49,0,0,0-7.8,3.24c-2.89.6-4.06,3.19-5.83,5.08a19.3,19.3,0,0,1-4.65,3.69c-1.57,1.32-2.83,3-4.51,4.18S4,63.15,1.27,62.36A1.64,1.64,0,0,1,.59,61c0-4.6,0-9.2,0-13.8,0-.5,0-1,0-1.53,3-8.24,10.27-12.94,16.13-18.75A10.79,10.79,0,0,0,20,21.72c1.08-4,.46-8.19.65-12.27.16-3.28.1-6.6,2.4-9.33H98.8A7.12,7.12,0,0,1,101.8,3.12Z"/><path class="b" d="M97.83,120.78c1.9-.23,2.78-1.82,4-3v5c-.68,2.76-2.41,3.94-5.24,3.49H5.13c-3,0-4.57-1.41-4.56-4.46.16-1.15-.44-2.47.75-3.4,11.63,1.84,23.4.25,35.06,1.39a9.57,9.57,0,0,0,3.91-.45c17.47,3.13,35.11,1.61,52.68,1.91C94.59,121.27,96.28,121.66,97.83,120.78Z"/><path class="c" d="M23,.12,23,18.9c0,1.81.09,3.64-1.06,5.22-6.18,3.42-12.71,2.59-19.25,1.61a6.62,6.62,0,0,1-1.35-.87C.21,21,2.78,18.34,4.85,15.8c3.41-4.17,7.57-7.69,10.84-12C17.24,1.7,20,1.53,22,.12Z"/><path class="d" d="M22,.12.92,24c-.25.41-.54.41-.85.06C.07,16.91.18,9.76,0,2.62,0,.47.41,0,2.57.06,9,.24,15.53.12,22,.12Z"/><path class="e" d="M4.09,125.74l93.91.14c.3.27.37.49.22.66a.59.59,0,0,1-.41.21H4.06c-.36-.24-.47-.46-.35-.69S4,125.74,4.09,125.74Z"/><path class="f" d="M1,46.06,1.24,62c2,2.62,2,5.67,1.79,8.75-.3,2.42.84,4.79.32,7.23-.76,2.7.52,5.4,0,8.1-.69,3.67.74,7.34.06,11-.41,4.37.43,8.73.05,13.09-.19,2.22.24,4.61-1.59,6.43a1.53,1.53,0,0,1-1.77.21V46C.42,45.3.72,45.32,1,46.06Z"/><path class="g" d="M1,46.06A8.47,8.47,0,0,1,.07,46V29a1.53,1.53,0,0,1,1.78.23c2.77,5.34,1.86,10.52-.66,15.64Z"/><path class="h" d="M4.09,125.74l0,1c-4.93,1.22-4-2.26-4-5,.34-.69.61-.67.83.07A4.91,4.91,0,0,0,4.09,125.74Z"/><path class="i" d="M97.81,126.75c.06-.29.13-.58.19-.87,2-.19,2.57-2,3.8-3.12Q102.93,127.88,97.81,126.75Z"/><path class="j" d="M101.8,3.12a5.42,5.42,0,0,1-3-3C101.3-.37,102.29.62,101.8,3.12Z"/><path class="k" d="M.91,29A4,4,0,0,0,.07,29v-5A1.75,1.75,0,0,1,.92,24a.91.91,0,0,1,.48.13C2.57,25.87,2.86,27.54.91,29Z"/><path class="l" d="M.9,121.83H.48l-.41-.08v-5a2.4,2.4,0,0,0,.8.08,1.38,1.38,0,0,1,.37,2Z"/><path class="d" d="M20.24,45c2-3.79,5.47-4.29,9.3-4.06,1.8.12,3.62-.07,5.43-.12A6.82,6.82,0,0,0,39.87,36c.51-2.38,2.07-3,4.37-3,5.13.12,10.27.16,15.4,0,3.22-.11,4.77,1.12,4.33,4.32s1.24,3.86,4,3.7c3.13-.18,6.29-.1,9.43,0,4.16.12,6.48,2.25,6.49,6.5,0,11.42,0,22.84.06,34.26a6.9,6.9,0,0,1-4.2,6.68c-3.54,3.26-7.9,2.86-12.17,2.61-2.16-.13-4.27-.45-6.35.4-4.37.37-8.72-1.85-13.1-.09-4.31.53-8.62-1.74-12.94,0-4.75-.1-9.45-.18-13.53-3.3-2.68-2-4.34-4.35-3.62-7.86.29-2.42-.79-4.78-.35-7.21.7-1.75-.14-3.55.13-5.31.4-2.71-.15-5.45.23-8.16C17.77,54.55,16.72,49.44,20.24,45Z"/><path class="m" d="M1.23,96.84V85.92c2.13-1.72,4.16-.66,6,.43,14.39,8.55,28.64,17.34,43,25.93,1.82,1.09,2.23,2.74,2.7,4.5-.38,1.19-2.37,1.93-1.48,3.34.76,1.2,2.44.62,3.72.63q21.33,0,42.66,0c-1.78,1.19-3.8,1-5.77,1l-52.1,0C29,116.09,18.62,109.4,8.09,103,5.4,101.38,2.72,99.78,1.23,96.84Z"/><path class="n" d="M52.93,116.78c-17.29-10.2-34.08-21.23-51.7-30.86v-8C3,76,4.85,76.71,6.69,77.63a35.57,35.57,0,0,1,6,3.54C25.31,91,40.37,96.8,53.41,105.91c2,1.41,4.39,2.44,5.5,4.88C57.42,113.29,55,114.9,52.93,116.78Z"/><path class="o" d="M58.91,110.79c-4.56-.37-7.8-3.49-11.44-5.68C33.54,96.74,19.7,88.23,5.79,79.83A33.53,33.53,0,0,0,1.23,77.9v-7A3.62,3.62,0,0,1,6.09,70c4.94,2.8,10.22,5.17,13.8,9.89.65,7.38,2.16,8.74,9.63,8.8,1.82,0,3.64.14,5.46.22,8.4,2.5,15.16,8.07,22.67,12.21,2.33,1.29,4.45,2.91,5.24,5.68Z"/><path class="p" d="M.91,29c.17-1.62.33-3.24.49-4.86H21.92A236.47,236.47,0,0,1,1.19,44.91Q1.06,36.95.91,29Z"/><path class="q" d="M62.89,106.8C53.29,101.3,43.38,96.29,35,88.91H48a62.31,62.31,0,0,1,15.7,7.67c1.85,1.27,4.15,2.28,3.25,5.26Z"/><path class="r" d="M19.89,79.89c-5.17-.5-8.47-4.62-12.83-6.71-1.9-.92-3.61-2.21-5.83-2.27,0-3,0-6,0-8.95l.83,0a31.2,31.2,0,0,1,17.82,11Z"/><path class="s" d="M66.9,101.84c-4.4-3.74-9.69-6.09-14.5-9.19-1.66-1.08-3.42-2-4.45-3.74h13c2,1.29,4.37,1.58,6.42,2.64s4.6,2.21,4.57,5.3A17.73,17.73,0,0,1,66.9,101.84Z"/><path class="t" d="M19.89,72.91c-6.47-2.79-12.71-6-17.82-11a11.87,11.87,0,0,1,4-4c5.5,2.09,10.92,4.27,13.83,9.95Z"/><path class="u" d="M19.89,67.91C15.2,64.71,9.09,63.48,6.06,58a11.52,11.52,0,0,1,4-4c4.25.39,7.37,2.63,9.83,6Z"/><path class="v" d="M71.9,96.85c-3.82-2.43-8.34-3.9-11-7.94l18.87-.44C77.93,92,74.9,94.41,71.9,96.85Z"/><path class="w" d="M19.89,60c-4.16-.52-7.29-2.76-9.83-6,3.79-2.54,6.14-6.71,10.18-9Q20.06,52.49,19.89,60Z"/><path class="x" d="M39.87,36c1,4.29-.71,5.81-4.9,4.85A19.15,19.15,0,0,1,39.87,36Z"/><path class="a" d="M1.23,96.84C12.93,102,23,109.92,34.17,116c2.39,1.3,5.16,2.5,5.79,5.72-10.4,0-20.8,0-31.2,0-2.95,0-5.58-.48-7.52-2.92-.12-.66-.25-1.33-.37-2Z"/><path class="y" d="M35.13,59c3.53-8.24,9.59-12.3,17.84-12a17.86,17.86,0,0,1,16.2,12.5c1.7,5.21.39,9.91-2.29,14.4-2.53,1.6-4.22.64-5.42-1.78-1-1.73-.36-3.5-.16-5.29.52-4.87-1.31-8.54-5-10.35A10.89,10.89,0,0,0,44,59c-1.23,1.27-2,3.1-4.09,3.34C37.14,62.85,36,61.12,35.13,59Z"/><path class="z" d="M55.92,81.87a16.79,16.79,0,0,1-21-13.37,6.74,6.74,0,0,1-.35-3.21c2-2.65,3.78-.42,5.65.13.64.19,1.38.39,1.66,1,2.34,4.74,6.52,7.16,11.17,9C53.87,77.62,57.32,78.67,55.92,81.87Z"/><path class="aa" d="M55.92,81.87l-4-4.92c3-3.08,5.94-6.44,10.87-6.26.58,2.06,2.16,2.85,4.08,3.21C65.09,79.11,60.32,80.24,55.92,81.87Z"/><path class="a" d="M44.32,37.5H59.68l0,1H44.32Z"/><path class="ab" d="M40,66.92l-5-2a4.16,4.16,0,0,1-.11-4.15L35.13,59c1.42,1.07,2.87,2,4.76,2C42.15,62.89,42.14,64.89,40,66.92Z"/><path class="ac" d="M34.92,60.77c0,1.38.07,2.77.11,4.15,0,1.19-.09,2.38-.13,3.58A8.53,8.53,0,0,1,34.92,60.77Z"/><path class="ad" d="M40,66.92c0-2-.08-4-.11-6,2-2.43,3-5.75,6.48-6.89,5-1.64,9.77-1.71,13.85,2.09,4.45,4.15,4.38,9.23,2.58,14.55-2.82,3.47-6.22,6-10.87,6.26C45.83,76.14,41.92,72.71,40,66.92Z"/><path class="ae" d="M52.1,68.79c-2.45-.38-4.09-1.71-4-4.22A3.59,3.59,0,0,1,52.05,61,3.59,3.59,0,0,1,55.93,65C55.86,67.41,54.24,68.41,52.1,68.79Z"/></svg>